<?xml version="1.0" encoding="UTF-8"?>
<svg width="1240px" height="723px" viewBox="0 0 1240 723" version="1.1" xmlns="http://www.w3.org/2000/svg" xmlns:xlink="http://www.w3.org/1999/xlink">
    <title>飞行遛狗</title>
    <g id="Page-1" stroke="none" stroke-width="1" fill="none" fill-rule="evenodd">
        <g id="30-Startup-Story-Illustrations" transform="translate(-230.000000, -334.000000)">
            <g id="飞行遛狗" transform="translate(236.000000, 334.000000)">
                <g id="BG">
                    <path d="M0.997672686,636.85197 L1226.57183,636.85197 L0.997672686,636.85197 Z" id="Fill-1" fill="#E8F6FF"></path>
                    <line x1="1226.57183" y1="636.85197" x2="0.997672686" y2="636.85197" id="Stroke-2" stroke="#DCF0FF" stroke-width="14" stroke-linecap="round"></line>
                    <polygon id="Fill-4" fill="#AAD5FF" points="546.119097 629.855013 688.514063 629.855013 688.514063 593.655571 546.119097 593.655571"></polygon>
                    <polygon id="Fill-5" fill="#CEECFD" points="679.47088 629.855013 688.514063 629.855013 688.514063 593.655571 679.47088 593.655571"></polygon>
                    <polygon id="Fill-6" fill="#E8F6FF" points="546.119097 593.655571 688.514063 593.655571 688.514063 584.749271 546.119097 584.749271"></polygon>
                    <polygon id="Fill-7" fill="#E8F6FF" points="546.119097 615.16711 683.992122 615.16711 683.992122 610.71466 546.119097 610.71466"></polygon>
                    <polygon id="Fill-8" fill="#AAD5FF" points="1054.77172 629.855013 1197.16668 629.855013 1197.16668 593.655571 1054.77172 593.655571"></polygon>
                    <polygon id="Fill-9" fill="#CEECFD" points="1188.1228 629.855013 1197.16668 629.855013 1197.16668 593.655571 1188.1228 593.655571"></polygon>
                    <polygon id="Fill-10" fill="#E8F6FF" points="1054.77172 593.655571 1197.16668 593.655571 1197.16668 584.749271 1054.77172 584.749271"></polygon>
                    <polygon id="Fill-11" fill="#E8F6FF" points="1054.77172 615.16711 1192.64474 615.16711 1192.64474 610.71466 1054.77172 610.71466"></polygon>
                    <polygon id="Fill-12" fill="#AAD5FF" points="295.098871 629.855013 437.493837 629.855013 437.493837 593.655571 295.098871 593.655571"></polygon>
                    <polygon id="Fill-13" fill="#CEECFD" points="428.450655 629.855013 437.493837 629.855013 437.493837 593.655571 428.450655 593.655571"></polygon>
                    <polygon id="Fill-14" fill="#E8F6FF" points="295.098871 593.655571 437.493837 593.655571 437.493837 584.749271 295.098871 584.749271"></polygon>
                    <polygon id="Fill-15" fill="#E8F6FF" points="295.099571 615.16711 432.972596 615.16711 432.972596 610.71466 295.099571 610.71466"></polygon>
                    <polygon id="Fill-16" fill="#AAD5FF" points="47.6404966 629.855013 190.035463 629.855013 190.035463 593.655571 47.6404966 593.655571"></polygon>
                    <polygon id="Fill-17" fill="#CEECFD" points="180.99228 629.855013 190.035463 629.855013 190.035463 593.655571 180.99228 593.655571"></polygon>
                    <polygon id="Fill-18" fill="#E8F6FF" points="47.6404966 593.655571 190.035463 593.655571 190.035463 584.749271 47.6404966 584.749271"></polygon>
                    <polygon id="Fill-19" fill="#E8F6FF" points="47.6404966 615.16711 185.513521 615.16711 185.513521 610.71466 47.6404966 610.71466"></polygon>
                    <polygon id="Fill-20" fill="#AAD5FF" points="554.668939 485.034838 679.982415 485.034838 679.982415 117.441598 554.668939 117.441598"></polygon>
                    <polygon id="Fill-21" fill="#E8F6FF" points="701.577099 91.7537348 701.577099 495.422464 679.982065 495.422464 679.982065 117.440408 554.66649 117.440408 554.66649 495.422464 533.176422 495.422464 533.176422 91.7537348"></polygon>
                    <polygon id="Fill-22" fill="#E8F6FF" points="533.178172 512.609496 701.580248 512.609496 701.580248 461.077884 533.178172 461.077884"></polygon>
                    <polygon id="Fill-23" fill="#C3E4FF" points="711.501718 495.422604 585.981108 495.422604 554.66621 461.079634 680.187519 461.079634"></polygon>
                    <polygon id="Fill-24" fill="#C3E4FF" points="669.730722 461.077884 679.982415 461.077884 679.982415 117.441598 669.730722 117.441598"></polygon>
                    <polygon id="Fill-25" fill="#C3E4FF" points="528.071219 512.609496 533.176072 512.609496 533.176072 91.7535247 528.071219 91.7535247"></polygon>
                    <polygon id="Fill-26" fill="#D0F0FF" points="554.668939 461.077884 675.717291 461.077884 675.717291 445.812941 554.668939 445.812941"></polygon>
                    <polygon id="Fill-27" fill="#D0F0FF" points="554.66614 219.730301 675.701896 219.730301 675.701896 205.685265 554.66614 205.685265"></polygon>
                    <polygon id="Fill-28" fill="#AAD5FF" points="585.981108 495.422604 554.66621 495.422604 554.66621 461.079634"></polygon>
                    <polygon id="Fill-29" fill="#AAD5FF" points="304.194537 485.034838 429.508014 485.034838 429.508014 117.441598 304.194537 117.441598"></polygon>
                    <polygon id="Fill-30" fill="#E8F6FF" points="451.102698 91.7537348 451.102698 495.422464 429.507664 495.422464 429.507664 117.440408 304.192088 117.440408 304.192088 495.422464 282.70202 495.422464 282.70202 91.7537348"></polygon>
                    <polygon id="Fill-31" fill="#E8F6FF" points="282.70447 512.609496 451.105847 512.609496 451.105847 461.077884 282.70447 461.077884"></polygon>
                    <polygon id="Fill-32" fill="#C3E4FF" points="461.027666 495.422604 335.506357 495.422604 304.192158 461.079634 429.712767 461.079634"></polygon>
                    <polygon id="Fill-33" fill="#C3E4FF" points="419.256321 461.077884 429.508014 461.077884 429.508014 117.441598 419.256321 117.441598"></polygon>
                    <polygon id="Fill-34" fill="#C3E4FF" points="277.596817 512.609496 282.70167 512.609496 282.70167 91.7535247 277.596817 91.7535247"></polygon>
                    <polygon id="Fill-35" fill="#D0F0FF" points="304.194537 461.077884 425.243589 461.077884 425.243589 445.812941 304.194537 445.812941"></polygon>
                    <polygon id="Fill-36" fill="#D0F0FF" points="304.191738 219.730301 425.227494 219.730301 425.227494 205.685265 304.191738 205.685265"></polygon>
                    <polygon id="Fill-37" fill="#AAD5FF" points="335.506637 495.422604 304.191738 495.422604 304.191738 461.079634"></polygon>
                    <polygon id="Fill-38" fill="#AAD5FF" points="53.8992777 485.034838 179.212754 485.034838 179.212754 117.441598 53.8992777 117.441598"></polygon>
                    <polygon id="Fill-39" fill="#E8F6FF" points="200.807298 91.7537348 200.807298 495.422464 179.212264 495.422464 179.212264 117.440408 53.8966885 117.440408 53.8966885 495.422464 32.4066208 495.422464 32.4066208 91.7537348"></polygon>
                    <polygon id="Fill-40" fill="#E8F6FF" points="32.4092099 512.609496 200.810587 512.609496 200.810587 461.077884 32.4092099 461.077884"></polygon>
                    <polygon id="Fill-41" fill="#C3E4FF" points="210.732266 495.422604 85.2109571 495.422604 53.8967585 461.079634 179.417368 461.079634"></polygon>
                    <polygon id="Fill-42" fill="#C3E4FF" points="168.961061 461.077884 179.212754 461.077884 179.212754 117.441598 168.961061 117.441598"></polygon>
                    <polygon id="Fill-43" fill="#C3E4FF" points="27.3015576 512.609496 32.4064108 512.609496 32.4064108 91.7535247 27.3015576 91.7535247"></polygon>
                    <polygon id="Fill-44" fill="#D0F0FF" points="53.8992777 461.077884 174.94833 461.077884 174.94833 445.812941 53.8992777 445.812941"></polygon>
                    <polygon id="Fill-45" fill="#D0F0FF" points="53.8964786 219.730301 174.932235 219.730301 174.932235 205.685265 53.8964786 205.685265"></polygon>
                    <polygon id="Fill-46" fill="#AAD5FF" points="85.211307 495.422604 53.8964086 495.422604 53.8964086 461.079634"></polygon>
                    <polygon id="Fill-47" fill="#AAD5FF" points="1058.39025 485.034838 1183.70372 485.034838 1183.70372 117.441598 1058.39025 117.441598"></polygon>
                    <polygon id="Fill-48" fill="#E8F6FF" points="1205.29841 91.7537348 1205.29841 495.422464 1183.70407 495.422464 1183.70407 117.440408 1058.3885 117.440408 1058.3885 495.422464 1036.89843 495.422464 1036.89843 91.7537348"></polygon>
                    <polygon id="Fill-49" fill="#E8F6FF" points="1036.90018 512.609496 1205.30156 512.609496 1205.30156 461.077884 1036.90018 461.077884"></polygon>
                    <polygon id="Fill-50" fill="#C3E4FF" points="1215.22373 495.422604 1089.70242 495.422604 1058.38822 461.079634 1183.90883 461.079634"></polygon>
                    <polygon id="Fill-51" fill="#C3E4FF" points="1173.45273 461.077884 1183.70372 461.077884 1183.70372 117.441598 1173.45273 117.441598"></polygon>
                    <polygon id="Fill-52" fill="#C3E4FF" points="1031.79253 512.609496 1036.89808 512.609496 1036.89808 91.7535247 1031.79253 91.7535247"></polygon>
                    <polygon id="Fill-53" fill="#D0F0FF" points="1058.39025 461.077884 1179.4393 461.077884 1179.4393 445.812941 1058.39025 445.812941"></polygon>
                    <polygon id="Fill-54" fill="#D0F0FF" points="1058.38815 219.730301 1179.42391 219.730301 1179.42391 205.685265 1058.38815 205.685265"></polygon>
                    <polygon id="Fill-55" fill="#AAD5FF" points="1089.70242 495.422604 1058.38822 495.422604 1058.38822 461.079634"></polygon>
                    <path d="M0.997672686,538.703808 L1226.57183,538.703808 L0.997672686,538.703808 Z" id="Fill-56" fill="#E8F6FF"></path>
                    <line x1="1226.57183" y1="538.703878" x2="0.997672686" y2="538.703878" id="Stroke-57" stroke="#DCF0FF" stroke-width="14" stroke-linecap="round"></line>
                    <polygon id="Fill-59" fill="#E8F6FF" points="811.945147 582.659602 965.035463 582.659602 965.035463 112.708332 811.945147 112.708332"></polygon>
                    <polygon id="Fill-60" fill="#D0F0FF" points="811.945147 582.659602 965.035463 582.659602 965.035463 112.708332 811.945147 112.708332"></polygon>
                    <polygon id="Fill-61" fill="#AAD5FF" points="811.946546 524.05155 903.239797 524.05155 903.239797 112.711133 811.946546 112.711133"></polygon>
                    <polygon id="Fill-62" fill="#CFF2FE" points="809.847223 555.456799 925.004176 555.456799 925.004176 521.950677 809.847223 521.950677"></polygon>
                    <path d="M927.103989,519.850014 L922.905343,519.850014 L811.947036,519.850014 L807.748391,519.850014 L807.748391,524.05176 L807.748391,553.356136 L807.748391,557.557882 L811.947036,557.557882 L922.905343,557.557882 L927.103989,557.557882 L927.103989,553.356136 L927.103989,524.05176 L927.103989,519.850014 Z M811.947036,553.356136 L922.905343,553.356136 L922.905343,524.05176 L811.947036,524.05176 L811.947036,553.356136 Z" id="Fill-63" fill="#AAD5FF"></path>
                    <polygon id="Fill-64" fill="#D0F0FF" points="809.847223 584.761876 946.679684 584.761876 946.679684 551.255053 809.847223 551.255053"></polygon>
                    <path d="M948.779217,549.15418 L944.580571,549.15418 L811.946756,549.15418 L807.748111,549.15418 L807.748111,553.355926 L807.748111,582.661003 L807.748111,586.862749 L811.946756,586.862749 L944.580571,586.862749 L948.779217,586.862749 L948.779217,582.661003 L948.779217,553.355926 L948.779217,549.15418 Z M811.946756,582.661003 L944.580571,582.661003 L944.580571,553.355926 L811.946756,553.355926 L811.946756,582.661003 Z" id="Fill-65" fill="#AAD5FF"></path>
                    <polygon id="Fill-66" fill="#FFFFFF" points="974.726916 93.5410875 974.726916 582.659322 965.035043 582.659322 965.035043 112.708052 811.945427 112.708052 811.945427 582.659322 802.260551 582.659322 802.260551 93.5410875"></polygon>
                    <polygon id="Fill-67" fill="#E8F6FF" points="993.459524 58.414702 993.459524 531.736473 974.726567 531.736473 974.726567 87.5096914 802.260901 87.5096914 802.260901 531.736473 783.527244 531.736473 783.527244 58.414702"></polygon>
                    <polyline id="Stroke-68" stroke="#AAD5FF" stroke-width="9.1" stroke-linejoin="round" points="913.560208 352.013376 883.395738 416.080897 918.275986 449.264185 950.75251 390.188338"></polyline>
                    <polygon id="Fill-69" fill="#D0F0FF" points="799.763476 627.748537 982.816727 627.748537 982.816727 584.761876 799.763476 584.761876"></polygon>
                    <path d="M797.663454,629.84941 L984.91605,629.84941 L984.91605,582.661003 L797.663454,582.661003 L797.663454,629.84941 Z M801.862099,625.647664 L980.717404,625.647664 L980.717404,586.862749 L801.862099,586.862749 L801.862099,625.647664 Z" id="Fill-70" fill="#AAD5FF"></path>
                    <polygon id="Fill-71" fill="#AAD5FF" points="797.664153 629.84941 832.097246 629.84941 832.097246 582.661003 797.664153 582.661003"></polygon>
                    <polyline id="Stroke-72" stroke="#FFFFFF" stroke-width="8.4" stroke-linecap="round" stroke-linejoin="round" points="951.452564 389.487837 932.592248 389.487837 895.398546 352.713457 914.260262 352.713457"></polyline>
                    <polygon id="Fill-73" fill="#E4F6FF" points="870.397571 0.698470223 881.937549 40.174573 894.350844 40.174573 905.883124 0.698470223"></polygon>
                </g>
                <g id="Dron" transform="translate(263.000000, 32.672279)">
                    <path d="M237.872393,51.1279707 L237.872393,51.1279707 C241.558804,51.1279707 244.54684,48.1370279 244.54684,44.4485953 L244.54684,25.7018058 L231.197246,25.7018058 L231.197246,44.4485953 C231.197246,48.1370279 234.185982,51.1279707 237.872393,51.1279707" id="Fill-74" fill="#3366E9"></path>
                    <line x1="237.872393" y1="10.8164208" x2="237.872393" y2="25.6842985" id="Stroke-76" stroke="#49A2FF" stroke-width="2.8"></line>
                    <path d="M361.155684,29.3830254 C361.155684,29.3830254 362.412479,52.0080264 313.389093,52.0080264" id="Stroke-78" stroke="#3366E9" stroke-width="7"></path>
                    <path d="M265.322858,51.4155102 L265.322858,68.2995257 C265.322858,82.5434442 253.78358,94.0912425 239.557169,94.0912425 C232.440465,94.0912425 226.002542,91.2060436 221.335047,86.5351028 C216.674551,81.8711649 213.791481,75.421485 213.791481,68.2995257 L213.791481,51.4155102" id="Stroke-80" stroke="#3366E9" stroke-width="7"></path>
                    <path d="M313.279578,68.1685013 L212.189488,68.1685013 C203.240774,68.1685013 195.986914,60.909285 195.986914,51.9539639 C195.986914,42.9993432 203.240774,35.7394266 212.189488,35.7394266 L313.279578,35.7394266 C322.228291,35.7394266 329.482151,42.9993432 329.482151,51.9539639 C329.482151,60.909285 322.228291,68.1685013 313.279578,68.1685013" id="Fill-82" fill="#2041B6"></path>
                    <path d="M232.895038,68.1685013 L212.189418,68.1685013 C203.240704,68.1685013 195.986844,60.909285 195.986844,51.9539639 C195.986844,42.9993432 203.240704,35.7394266 212.189418,35.7394266 L232.895038,35.7394266 C241.843752,35.7394266 249.097612,42.9993432 249.097612,51.9539639 C249.097612,60.909285 241.843752,68.1685013 232.895038,68.1685013" id="Fill-84" fill="#49A2FF"></path>
                    <path d="M304.409029,33.7106136 C304.409029,33.7106136 305.008736,52.6541849 281.598488,52.6541849" id="Stroke-86" stroke="#49A2FF" stroke-width="7.7"></path>
                    <path d="M166.657065,29.3293831 C166.657065,29.3293831 165.365282,51.9543841 215.749029,51.9543841" id="Stroke-88" stroke="#3366E9" stroke-width="7"></path>
                    <path d="M166.441815,51.2001007 L166.441815,51.2001007 C162.755404,51.2001007 159.767368,48.2091579 159.767368,44.520025 L159.767368,25.7739358 L173.116962,25.7739358 L173.116962,44.520025 C173.116962,48.2091579 170.128226,51.2001007 166.441815,51.2001007" id="Fill-90" fill="#3366E9"></path>
                    <path d="M305.110203,50.5716596 L305.110203,50.5716596 C301.423792,50.5716596 298.435056,47.5807168 298.435056,43.8915839 L298.435056,25.1454947 L311.78535,25.1454947 L311.78535,43.8915839 C311.78535,47.5807168 308.796614,50.5716596 305.110203,50.5716596" id="Fill-92" fill="#49A2FF"></path>
                    <path d="M361.158413,51.253813 L361.158413,51.253813 C357.472002,51.253813 354.483966,48.2628702 354.483966,44.5737373 L354.483966,25.8276481 L367.83356,25.8276481 L367.83356,44.5737373 C367.83356,48.2628702 364.845524,51.253813 361.158413,51.253813" id="Fill-94" fill="#3366E9"></path>
                    <line x1="166.11754" y1="10.9063381" x2="166.11754" y2="25.7735156" id="Stroke-96" stroke="#49A2FF" stroke-width="2.8"></line>
                    <path d="M166.11754,10.9125007 L142.036208,10.9125007 C142.036208,7.99438817 147.772257,5.48174413 156.037291,4.343071 C160.531242,7.2618838 166.11754,10.9125007 166.11754,10.9125007" id="Fill-98" fill="#EF3C86"></path>
                    <path d="M188.235235,6.16571833 C183.175167,2.35893657 174.670111,0.851210087 166.654196,1.96747391" id="Stroke-100" stroke="#12171B" stroke-width="1.4"></path>
                    <path d="M258.017214,7.5314258 C252.957147,3.72464403 244.45209,2.21621726 236.436176,3.33318138" id="Stroke-102" stroke="#12171B" stroke-width="1.4"></path>
                    <path d="M327.246722,5.9143839 C322.422479,1.81347992 314.022388,-0.199156353 305.953991,0.438108438" id="Stroke-104" stroke="#12171B" stroke-width="1.4"></path>
                    <path d="M381.682862,7.40488322 C376.623494,3.59810145 368.117738,2.08967468 360.101824,3.2066388" id="Stroke-106" stroke="#12171B" stroke-width="1.4"></path>
                    <path d="M190.198242,10.9125007 C190.198242,13.6170244 185.287926,15.9601981 177.996977,17.2004134 L166.117609,10.9125007 L190.198242,10.9125007 Z" id="Fill-108" fill="#EF3C86"></path>
                    <line x1="305.110203" y1="10.2597595" x2="305.110203" y2="25.1276372" id="Stroke-110" stroke="#49A2FF" stroke-width="2.8"></line>
                    <path d="M305.110203,10.265922 L281.028871,10.265922 C281.028871,7.34780951 286.764921,4.83516547 295.029955,3.69719263 C299.523905,6.61530514 305.110203,10.265922 305.110203,10.265922" id="Fill-112" fill="#EF3C86"></path>
                    <path d="M329.190905,10.265922 C329.190905,12.9704458 324.280589,15.3136194 316.988941,16.5538347 L305.110273,10.265922 L329.190905,10.265922 Z" id="Fill-114" fill="#EF3C86"></path>
                    <path d="M237.872393,10.8160706 L213.791061,10.8160706 C213.791061,7.8979581 219.527111,5.38461377 227.792144,4.24664093 C232.286095,7.16545373 237.872393,10.8160706 237.872393,10.8160706" id="Fill-116" fill="#EF3C86"></path>
                    <path d="M261.953095,10.8160706 C261.953095,13.5198941 257.042779,15.863768 249.751831,17.103283 L237.872463,10.8160706 L261.953095,10.8160706 Z" id="Fill-118" fill="#EF3C86"></path>
                    <line x1="361.158413" y1="10.9600504" x2="361.158413" y2="25.8279282" id="Stroke-120" stroke="#49A2FF" stroke-width="2.8"></line>
                    <path d="M361.158413,10.966213 L337.077781,10.966213 C337.077781,8.04810048 342.813131,5.53545645 351.078865,4.39748361 C355.572815,7.31559612 361.158413,10.966213 361.158413,10.966213" id="Fill-122" fill="#EF3C86"></path>
                    <path d="M385.239815,10.966213 C385.239815,13.6707368 380.328799,16.0139104 373.037851,17.2541257 L361.158483,10.966213 L385.239815,10.966213 Z" id="Fill-124" fill="#EF3C86"></path>
                    <path d="M311.951826,50.3021876 C320.792074,50.3021876 320.792074,58.2385853 320.792074,58.2385853 L320.792074,68.6799238 C320.792074,82.9238423 309.253497,94.4716405 295.026386,94.4716405 C287.910381,94.4716405 280.771984,92.2867327 276.10449,87.6157919 C271.444693,82.9518539 269.261397,79.4812118 269.261397,70.7807967 L269.261397,61.5425581 C269.261397,61.5425581 269.893293,51.7959082 259.558327,51.7959082" id="Stroke-126" stroke="#49A2FF" stroke-width="7"></path>
                    <path d="M232.132774,51.4155102 C232.132774,55.684484 230.755619,59.145322 229.056567,59.145322 C227.357515,59.145322 225.980359,55.684484 225.980359,51.4155102 C225.980359,47.1458361 227.357515,43.6849981 229.056567,43.6849981 C230.755619,43.6849981 232.132774,47.1458361 232.132774,51.4155102" id="Fill-128" fill="#2041B6"></path>
                    <polygon id="Fill-130" fill="#2041B6" points="225.235869 59.1456722 229.056637 59.1456722 229.056637 43.6853482 225.235869 43.6853482"></polygon>
                    <path d="M228.312007,51.4155102 C228.312007,55.684484 226.934851,59.145322 225.235799,59.145322 C223.536747,59.145322 222.159591,55.684484 222.159591,51.4155102 C222.159591,47.1458361 223.536747,43.6849981 225.235799,43.6849981 C226.934851,43.6849981 228.312007,47.1458361 228.312007,51.4155102" id="Fill-132" fill="#FFC100"></path>
                    <path d="M342.995702,14.9573113 C348.05507,18.7640931 356.560126,20.2725199 364.57674,19.1555558" id="Stroke-133" stroke="#12171B" stroke-width="1.4"></path>
                    <path d="M216.488621,15.6750396 C221.547989,19.4818213 230.053045,20.9902481 238.069659,19.873284" id="Stroke-134" stroke="#12171B" stroke-width="1.4"></path>
                    <path d="M139.968935,9.39805141 C136.164962,14.1173123 145.102479,18.090063 153.161779,18.8372735" id="Stroke-135" stroke="#12171B" stroke-width="1.4"></path>
                    <path d="M277.386756,8.69026731 C273.582783,13.4095282 282.521,17.382279 290.5803,18.1294894" id="Stroke-136" stroke="#12171B" stroke-width="1.4"></path>
                    <path d="M0.0858081264,551.680416 C0.0858081264,551.680416 166.653777,289.474667 239.556959,94.0913825" id="Stroke-137" stroke="#0051BE" stroke-width="4.9" stroke-linejoin="bevel"></path>
                    <path d="M240.162054,91.1703988 C240.162054,91.1703988 265.999819,162.995043 240.162054,162.995043 C214.324289,162.995043 240.162054,91.1703988 240.162054,91.1703988 Z" id="Stroke-156" stroke="#0051BE" stroke-width="4.9" stroke-linejoin="bevel"></path>
                </g>
                <g id="Dog" transform="translate(168.000000, 553.672279)">
                    <path d="M77.1845327,20.7553325 C73.4484379,28.3359823 66.3100406,32.4487913 61.2450745,29.9487525 L74.7703115,2.50995131 C79.8345779,5.00999011 80.9178284,13.1816855 77.1845327,20.7553325" id="Fill-139" fill="#001F68"></path>
                    <path d="M83.5843183,84.9549983 C83.5843183,84.9549983 98.2256953,102.409051 96.502851,112.213124 C94.7807065,122.017198 74.1100745,138.963539 74.1100745,138.963539 L62.8849955,159.59061 C61.9319029,161.343439 62.4973205,163.535349 64.1788781,164.607495 C67.7204357,166.864533 72.4264176,165.724459 74.5446343,162.096251 L82.7228962,148.089031 L119.048178,117.01642 C122.612129,113.968054 124.664567,109.510701 124.664567,104.818752 L124.664567,79.2511282 L83.5843183,84.9549983 Z" id="Fill-140" fill="#001F68"></path>
                    <path d="M249.022151,74.9991715 C249.204093,91.4483063 241.520571,110.909393 237.797772,119.348599 L237.035018,118.584582 C237.035018,118.584582 236.832084,95.6017321 204.971361,91.8341666 C182.781519,89.2080755 170.836372,95.7838078 156.029149,100.335699 C154.405673,100.839208 152.747208,101.316106 151.032761,101.749587 C145.945402,103.052828 140.396192,104.005224 133.937275,104.221614 C105.519442,105.167707 87.2623318,95.3146128 87.2623318,95.3146128 C87.2623318,95.3146128 84.4212483,84.7542248 78.3821964,74.6343199 C77.2485621,72.7302287 75.9959661,70.8457457 74.6314063,69.0466982 C70.0128962,62.9471637 64.0648149,57.8560483 56.6891941,56.6445449 C1.81989391,47.6037884 -1.71396614,25.9297825 0.553302483,14.5913713 C1.42102257,10.2362617 3.14946501,7.40638584 3.14946501,7.40638584 L9.92327991,9.28316566 L51.4408871,20.8099552 C51.4408871,20.8099552 55.0727156,14.4240017 63.6659436,14.2062113 C71.3914515,14.0101298 79.1029639,19.3400444 91.0341151,25.3065236 C92.3356953,25.9507913 93.6792619,26.6083645 95.0858081,27.2673383 C99.8512709,29.5005662 105.260526,31.7485003 111.523506,33.7653383 C123.384679,37.5819242 135.28784,38.6603723 147.708833,38.5483257 C148.625537,38.5413228 149.535244,38.5280173 150.458946,38.5070085 C169.492806,38.0728281 189.800255,35.1386089 213.025763,35.1309057 C225.180842,35.1309057 236.37723,44.2774062 242.983099,55.9645624 C246.356011,61.9387447 248.532309,68.5775032 249.022151,74.9991715" id="Fill-141" fill="#0054A9"></path>
                    <path d="M72.4982844,62.2933721 C72.4982844,62.2933721 84.9283747,75.7795758 79.4393454,83.7530888 C72.7068172,93.5326524 67.8580813,102.151133 66.1975169,110.396359 C63.1828894,125.363679 103.021738,158.500047 103.021738,158.500047 C103.021738,158.500047 109.696885,151.066458 100.868533,141.370229 L84.7149436,115.750784 L117.900339,93.175504 L72.4982844,62.2933721 Z" id="Fill-142" fill="#0054A9"></path>
                    <path d="M62.644693,21.9479981 C62.644693,23.7526479 61.1828646,25.2155558 59.3788465,25.2155558 C57.5755282,25.2155558 56.1136998,23.7526479 56.1136998,21.9479981 C56.1136998,20.1433482 57.5755282,18.6797401 59.3788465,18.6797401 C61.1828646,18.6797401 62.644693,20.1433482 62.644693,21.9479981" id="Fill-143" fill="#FFECF4"></path>
                    <path d="M87.7993386,18.527917 C81.4698804,24.1253428 73.3070135,25.223399 69.5674199,20.9887395 L92.4766298,0.728621145 C96.2162235,4.9632807 94.1231986,12.9360935 87.7993386,18.527917" id="Fill-144" fill="#0054A9"></path>
                    <path d="M273.302779,131.473087 L273.302779,161.578596 C273.302779,163.854542 270.953637,165.70331 268.06077,165.70331 L265.76481,165.70331 C264.643072,165.70331 263.735465,164.98201 263.753659,164.099644 L264.020273,145.618965 C264.020273,143.469072 262.934923,141.403213 260.994449,139.883582 L234.739619,119.281021 C239.474291,110.842515 249.246639,91.3814285 249.015014,74.9315934 C249.041605,75.197704 251.04086,122.470847 270.94454,127.698519 C272.729664,128.167013 273.302779,129.995473 273.302779,131.473087" id="Fill-145" fill="#001F68"></path>
                    <path d="M223.260381,38.3556056 C223.769117,39.4879761 238.772278,51.1107055 234.957808,37.5145562 C231.143339,23.9177065 203.933316,10.0463428 203.933316,10.0463428 C203.933316,10.0463428 201.394535,3.53503725 210.928959,5.23324287 C220.462684,6.93214879 255.916747,17.1234834 254.210698,45.4327463 C252.504648,73.7427094 205.96826,38.3556056 205.96826,38.3556056 L223.260381,38.3556056 Z" id="Fill-146" fill="#0054A9"></path>
                    <path d="M244.775011,97.2477661 L235.130023,128.32668 C234.960677,128.871506 234.998465,129.455549 235.238488,129.976565 L241.975214,141.959945 C242.612009,143.092315 242.730971,144.420767 242.304108,145.638573 L235.859887,164.013508 C235.253183,165.199101 233.980293,165.953314 232.584944,165.953314 L226.610971,165.953314 C225.297494,165.953314 224.382889,164.722203 224.830745,163.556918 L230.757833,148.140012 C231.551377,146.076255 231.044041,143.767396 229.447856,142.170032 L215.469165,128.195025 C214.792483,127.445714 214.33553,126.542338 214.143093,125.574536 L201.307833,61.0987457 L244.775011,97.2477661 Z" id="Fill-147" fill="#0054A9"></path>
                    <path d="M9.93034763,9.59171387 C9.93034763,13.0861659 7.32718736,15.9153414 4.11522348,15.9153414 C2.77165688,15.9153414 1.53305643,15.4181348 0.55337246,14.5917915 C1.42109255,10.2359816 3.14953499,7.40680601 3.14953499,7.40680601 L9.92334989,9.28358584 C9.93034763,9.38162658 9.93034763,9.48667022 9.93034763,9.59171387" id="Fill-148" fill="#001F68"></path>
                    <path d="M78.4364289,78.3891401 C78.4364289,81.5628588 77.5190248,84.1350275 76.3881896,84.1350275 C75.2566546,84.1350275 74.3399503,81.5628588 74.3399503,78.3891401 C74.3399503,75.2161216 75.2566546,72.6432526 76.3881896,72.6432526 C77.5190248,72.6432526 78.4364289,75.2161216 78.4364289,78.3891401" id="Fill-149" fill="#FFC100"></path>
                    <polygon id="Fill-150" fill="#FFC100" points="73.8439503 84.1352376 76.3876298 84.1352376 76.3876298 72.6434627 73.8439503 72.6434627"></polygon>
                    <path d="M75.8922596,78.3891401 C75.8922596,81.5628588 74.9748555,84.1350275 73.8440203,84.1350275 C72.7131851,84.1350275 71.795781,81.5628588 71.795781,78.3891401 C71.795781,75.2161216 72.7131851,72.6432526 73.8440203,72.6432526 C74.9748555,72.6432526 75.8922596,75.2161216 75.8922596,78.3891401" id="Fill-151" fill="#F38C01"></path>
                    <path d="M96.5554041,25.2709488 C85.6039368,36.587651 78.2703025,54.5788266 77.5005508,75.0553348 L73.1899413,70.3206675 C74.4075485,50.9583222 81.5102573,34.024586 91.9228984,23.1350613 C93.4134176,23.8353523 94.9459233,24.556652 96.5554041,25.2709488" id="Fill-152" fill="#EF3C86"></path>
                    <path d="M229.801242,4.95088555 C229.801242,4.95088555 242.145959,6.97262561 246.595824,15.5911067" id="Stroke-154" stroke="#12171B" stroke-width="1.4"></path>
                    <path d="M229.801242,4.95088555 C229.801242,4.95088555 242.145959,6.97262561 246.595824,15.5911067" id="Fill-153" fill="#FFFFFF"></path>
                    <path d="M351.597862,165.768227 C351.597862,167.166008 273.731181,168.299779 177.676666,168.299779 C81.622851,168.299779 3.7561693,167.166008 3.7561693,165.768227 C3.7561693,164.369746 81.622851,163.235975 177.676666,163.235975 C273.731181,163.235975 351.597862,164.369746 351.597862,165.768227" id="Fill-138" fill="#AFB4C8"></path>
                </g>
                <g id="Man" transform="translate(653.000000, 153.672279)">
                    <path d="M327.372205,565.768227 C327.372205,567.166008 257.674688,568.299779 171.699023,568.299779 C85.7240564,568.299779 16.0265395,567.166008 16.0265395,565.768227 C16.0265395,564.369746 85.7240564,563.235975 171.699023,563.235975 C257.674688,563.235975 327.372205,564.369746 327.372205,565.768227" id="Fill-157" fill="#AFB4C8"></path>
                    <path d="M57.5826343,525.483008 L50.1181422,538.6989 C50.1181422,538.6989 19.041167,517.151646 0.308209932,518.660073 L51.9844402,566.06417 L75.8838307,530.511097 L57.5826343,525.483008 Z" id="Fill-158" fill="#0B096F"></path>
                    <polygon id="Fill-159" fill="#0B096F" points="268.806488 509.681993 287.323914 528.858761 280.074953 553.925676 256.318316 566.13595 292.993485 566.13595 316.722831 525.530278 276.664953 491.833676"></polygon>
                    <path d="M152.39246,271.026048 C152.39246,271.026048 126.798916,221.682845 128.80167,206.168599 C130.804424,190.654353 149.277065,164.36613 169.529233,155.10128 L191.562325,188.499557 L152.39246,271.026048 Z" id="Fill-160" fill="#EF3C86"></path>
                    <path d="M230.193153,27.8814485 C230.193153,27.8814485 201.693447,44.1870237 224.046336,61.0647366" id="Fill-161" fill="#0B096F"></path>
                    <polygon id="Fill-162" fill="#BE2145" points="161.860616 159.446936 168.900345 202.990328 187.632603 172.392515"></polygon>
                    <polygon id="Fill-163" fill="#EF3C86" points="74.2350226 533.366044 63.8839616 548.361374 50.1180023 538.698759 56.2900113 527.709793"></polygon>
                    <polygon id="Fill-164" fill="#EF3C86" points="276.95298 491.833466 299.988149 511.572568 287.323634 528.858551 273.471603 514.565612"></polygon>
                    <path d="M210.2407,251.239747 C185.902551,382.682963 299.988149,491.833116 299.988149,491.833116 L272.036366,526.865873 C272.036366,526.865873 221.221558,476.211725 184.618465,402.950784 C130.315982,294.265624 159.426591,228.344433 159.426591,228.344433 L210.2407,251.239747 Z" id="Fill-165" fill="#0D0D11"></path>
                    <polygon id="Fill-166" fill="#393940" points="179.911223 237.830645 48.6860542 529.522847 82.8553318 546.718492 237.021901 263.30583"></polygon>
                    <path d="M159.426381,228.344223 L173.421867,180.796567 L160.575411,157.073509 C160.575411,157.073509 199.474463,123.049172 232.848797,132.314722 L259.117623,137.270681 C259.117623,137.270681 309.74979,143.912941 323.281325,186.614584 L269.549158,206.896411 L237.022251,263.30625" id="Fill-167" fill="#F38C01"></path>
                    <path d="M323.281535,186.611923 L321.84,187.193165 L270.182664,207.949789 L268.566885,208.60106 L238.707517,260.380575 C237.11833,260.891787 235.502551,261.388994 233.850384,261.879197 L159.43009,228.342262 L173.425576,180.799508 C173.425576,180.799508 176.825779,159.223543 193.803002,143.305929 C205.671174,132.185308 218.833228,130.826744 220.113815,130.7217 L220.12851,130.7217 C224.396433,130.665677 228.665056,131.148877 232.850406,132.31136 L259.119932,137.269421 C259.119932,137.269421 309.747901,143.915182 323.281535,186.611923" id="Fill-168" fill="#FFC100"></path>
                    <path d="M335.338995,247.593332 C331.840124,286.91467 215.837844,293.273312 215.837844,293.273312 L210.23965,267.635659 C218.644639,266.017987 226.54509,264.036164 233.850734,261.879268 C235.502201,261.389064 237.118679,260.891857 238.707167,260.380645 C269.413262,250.632594 288.398138,238.223438 288.398138,238.223438 L270.183014,207.949859 L321.84035,187.193235 C330.671501,203.881169 337.333352,225.142003 335.338995,247.593332" id="Fill-170" fill="#FF77CA"></path>
                    <path d="M280.541352,85.7724029 C284.632233,81.1392778 304.118147,81.3549674 303.041194,95.1450974 C301.653542,112.928287 269.129433,108.935928 269.129433,108.935928 L261.808395,137.054711 L272.039095,140.351681 C272.039095,140.351681 238.447131,160.75746 220.073858,154.293074 C201.699885,147.828688 220.215912,130.718479 220.215912,130.718479 L228.301104,131.317928 L239.415619,103.979968 C239.415619,103.979968 212.179005,94.9658229 207.871894,89.794174 C207.871894,89.794174 214.475664,62.2853437 226.102413,45.6940499 L255.959682,35.2078927 L289.835754,52.4455552 L280.541352,85.7724029 Z" id="Fill-171" fill="#FF77CA"></path>
                    <path d="M297.065332,84.7014479 C297.065332,84.7014479 316.929824,84.9101346 305.733436,56.1442821 C294.537047,27.3791298 272.466867,30.6109726 272.466867,30.6109726 C272.466867,30.6109726 276.234451,7.66803957 262.454497,1.95786693 C242.823029,-6.17671309 227.106799,22.8538495 227.106799,22.8538495 C227.106799,22.8538495 229.116551,4.32274956 222.514181,4.32274956 C215.910411,4.32274956 187.848063,56.8984954 276.988808,62.9322025 C276.988808,62.9322025 263.96181,75.2139057 280.541562,85.7721928 C280.541562,85.7721928 286.354587,80.6369591 297.065332,84.7014479" id="Fill-172" fill="#0B096F"></path>
                    <polyline id="Stroke-173" stroke="#001F68" stroke-width="6.3" points="305.194749 33.196587 297.012989 45.8375395 301.103869 50.4342495 314.596916 44.7604919"></polyline>
                    <path d="M214.210379,263.278379 C214.210379,263.278379 208.686361,267.788953 211.592524,281.916623 C213.950763,293.385989 218.143111,295.428738 218.143111,295.428738" id="Stroke-174" stroke="#0C0D11" stroke-width="3.5"></path>
                    <polygon id="Fill-175" fill="#EF3C86" points="239.415968 103.979968 258.327368 107.535346 236.168316 111.966787"></polygon>
                    <polygon id="Fill-176" fill="#285FD7" points="230.460327 68.1913177 219.909831 78.8931645 226.179808 81.5696766"></polygon>
                    <path d="M226.977831,65.2447734 C226.262661,67.2742167 224.044377,68.3365581 222.015731,67.6201604 C219.987786,66.904463 218.914332,64.6796386 219.629501,62.6501953 L226.977831,65.2447734 Z" id="Fill-177" fill="#0B096F"></path>
                    <path d="M244.164707,71.7576896 C243.449537,73.7871329 241.231253,74.8494743 239.202607,74.1330766 C237.174661,73.4173792 236.101208,71.1925548 236.816377,69.1631115 L244.164707,71.7576896 Z" id="Fill-178" fill="#0B096F"></path>
                    <path d="M222.370587,87.6216613 C222.370587,87.6216613 227.465643,90.1357059 230.623725,86.4724838" id="Stroke-179" stroke="#0D1A88" stroke-width="2.1"></path>
                    <polygon id="Fill-180" fill="#F38C01" points="268.565905 208.600009 253.232451 185.465197 260.023761 223.414665"></polygon>
                    <path d="M238.707307,260.380785 L237.020851,263.308001 L233.850874,261.879408 C235.502341,261.389204 237.11812,260.891997 238.707307,260.380785" id="Fill-169" fill="#FFC700"></path>
                </g>
            </g>
        </g>
    </g>
</svg>