<?xml version="1.0" encoding="UTF-8"?>
<svg width="1240px" height="709px" viewBox="0 0 1240 709" version="1.1" xmlns="http://www.w3.org/2000/svg" xmlns:xlink="http://www.w3.org/1999/xlink">
    <title>飞行器</title>
    <g id="Page-1" stroke="none" stroke-width="1" fill="none" fill-rule="evenodd">
        <g id="30-Startup-Story-Illustrations" transform="translate(-1729.000000, -14643.000000)">
            <g id="飞行器" transform="translate(1736.000000, 14643.000000)">
                <g id="BG">
                    <polygon id="Fill-1" fill="#AAD5FF" points="256.839233 393.899683 197.807892 393.899683 197.807892 271.309873 256.839233 222.316784"></polygon>
                    <polygon id="Fill-2" fill="#C3E4FF" points="553.645365 576.575178 619.339232 576.575178 619.339232 362.925412 553.645365 362.925412"></polygon>
                    <polygon id="Fill-3" fill="#C3E4FF" points="516.020741 439.923652 581.714607 439.923652 581.714607 226.273885 516.020741 226.273885"></polygon>
                    <polygon id="Fill-4" fill="#AAD5FF" points="220.727584 579.731033 380.125779 579.731033 380.125779 358.758199 220.727584 358.758199"></polygon>
                    <polygon id="Fill-5" fill="#AAD5FF" points="105.709611 576.235726 265.107805 576.235726 265.107805 355.262192 105.709611 355.262192"></polygon>
                    <polygon id="Fill-6" fill="#AAD5FF" points="2.37642466 579.248101 161.774619 579.248101 161.774619 503.995415 2.37642466 503.995415"></polygon>
                    <polygon id="Fill-7" fill="#AAD5FF" points="367.420724 578.203848 526.818918 578.203848 526.818918 454.665672 367.420724 454.665672"></polygon>
                    <line x1="632.903676" y1="107.084056" x2="632.903676" y2="156.83094" id="Stroke-8" stroke="#C3E4FF" stroke-width="5.6"></line>
                    <polygon id="Fill-9" fill="#AAD5FF" points="876.808329 579.248101 965.302856 579.248101 965.302856 299.886003 876.808329 299.886003"></polygon>
                    <polygon id="Fill-10" fill="#AAD5FF" points="923.632852 443.19919 999.850584 443.19919 999.850584 246.032099 923.632852 246.032099"></polygon>
                    <polygon id="Fill-11" fill="#AAD5FF" points="943.842958 252.017654 978.052696 252.017654 978.052696 236.987274 943.842958 236.987274"></polygon>
                    <polygon id="Fill-12" fill="#AAD5FF" points="748.017379 221.871296 748.017379 581.94951 609.147687 581.94951 609.147687 120.217634 663.69489 160.147002 663.69489 218.854722 711.062436 218.854722 711.062436 194.820112"></polygon>
                    <line x1="816.997513" y1="232.420349" x2="816.997513" y2="281.521223" id="Stroke-13" stroke="#C3E4FF" stroke-width="5.6"></line>
                    <polygon id="Fill-14" fill="#D6EEFF" points="649.052237 579.248101 768.471775 579.248101 768.471775 262.785636 649.052237 262.785636"></polygon>
                    <polygon id="Fill-15" fill="#C3E4FF" points="768.471775 579.248101 844.175876 579.248101 844.175876 262.785636 768.471775 262.785636"></polygon>
                    <polygon id="Fill-16" fill="#AAD5FF" points="649.052937 303.787953 677.441975 303.787953 677.441975 289.05853 649.052937 289.05853"></polygon>
                    <polygon id="Fill-17" fill="#AAD5FF" points="677.441975 318.368996 705.830313 318.368996 705.830313 303.640273 677.441975 303.640273"></polygon>
                    <polygon id="Fill-18" fill="#AAD5FF" points="705.830313 303.787953 734.218651 303.787953 734.218651 289.05853 705.830313 289.05853"></polygon>
                    <polygon id="Fill-19" fill="#E8F6FF" points="649.052937 318.368996 677.441975 318.368996 677.441975 303.640273 649.052937 303.640273"></polygon>
                    <polygon id="Fill-20" fill="#E8F6FF" points="677.441975 417.786474 705.830313 417.786474 705.830313 403.057051 677.441975 403.057051"></polygon>
                    <polygon id="Fill-21" fill="#E8F6FF" points="778.2028 318.368996 800.197324 318.368996 800.197324 303.640273 778.2028 303.640273"></polygon>
                    <polygon id="Fill-22" fill="#E8F6FF" points="734.21935 492.083795 762.608388 492.083795 762.608388 477.354372 734.21935 477.354372"></polygon>
                    <polygon id="Fill-23" fill="#AAD5FF" points="734.21935 333.098419 762.608388 333.098419 762.608388 318.368996 734.21935 318.368996"></polygon>
                    <polygon id="Fill-24" fill="#AAD5FF" points="677.441975 403.057051 705.830313 403.057051 705.830313 388.328329 677.441975 388.328329"></polygon>
                    <polygon id="Fill-25" fill="#AAD5FF" points="734.21935 417.786474 762.608388 417.786474 762.608388 403.057051 734.21935 403.057051"></polygon>
                    <polygon id="Fill-26" fill="#AAD5FF" points="778.208398 303.787953 800.197324 303.787953 800.197324 289.05853 778.208398 289.05853"></polygon>
                    <polygon id="Fill-27" fill="#AAD5FF" points="822.18695 318.516675 844.175876 318.516675 844.175876 303.787953 822.18695 303.787953"></polygon>
                    <polygon id="Fill-28" fill="#AAD5FF" points="778.205599 375.370356 800.194525 375.370356 800.194525 360.641634 778.205599 360.641634"></polygon>
                    <polygon id="Fill-29" fill="#AAD5FF" points="705.830313 492.083795 734.218651 492.083795 734.218651 477.354372 705.830313 477.354372"></polygon>
                    <polygon id="Fill-30" fill="#AAD5FF" points="649.052937 529.865866 677.441975 529.865866 677.441975 515.136443 649.052937 515.136443"></polygon>
                    <polygon id="Fill-31" fill="#AAD5FF" points="677.441975 544.595288 705.830313 544.595288 705.830313 529.865866 677.441975 529.865866"></polygon>
                    <polygon id="Fill-32" fill="#AAD5FF" points="649.052937 333.098419 677.441975 333.098419 677.441975 318.368996 649.052937 318.368996"></polygon>
                    <polygon id="Fill-33" fill="#E8F6FF" points="412.206812 328.800325 423.799929 328.800325 423.799929 308.108443 412.206812 308.108443"></polygon>
                    <polygon id="Fill-34" fill="#E8F6FF" points="412.206812 287.416562 423.799929 287.416562 423.799929 266.72468 412.206812 266.72468"></polygon>
                    <polygon id="Fill-35" fill="#D6EEFF" points="400.802632 579.248101 500.583078 579.248101 500.583078 47.0004709 400.802632 47.0004709"></polygon>
                    <polygon id="Fill-36" fill="#AAD5FF" points="500.583078 579.248101 563.83684 579.248101 563.83684 47.0004709 500.583078 47.0004709"></polygon>
                    <polygon id="Fill-37" fill="#D6EEFF" points="400.802632 34.7249023 500.583078 34.7249023 500.583078 10.3893346 400.802632 10.3893346"></polygon>
                    <polygon id="Fill-38" fill="#D6EEFF" points="418.888932 25.0340691 459.145397 25.0340691 459.145397 0.698501481 418.888932 0.698501481"></polygon>
                    <polygon id="Fill-39" fill="#D6EEFF" points="510.325999 25.0340691 550.581765 25.0340691 550.581765 0.698501481 510.325999 0.698501481"></polygon>
                    <polygon id="Fill-40" fill="#AAD5FF" points="500.583078 34.7249023 563.83684 34.7249023 563.83684 10.3893346 500.583078 10.3893346"></polygon>
                    <polygon id="Fill-41" fill="#D6EEFF" points="391.592237 46.999771 502.646005 46.999771 502.646005 34.7249023 391.592237 34.7249023"></polygon>
                    <polygon id="Fill-42" fill="#C3E4FF" points="502.646704 46.999771 573.046535 46.999771 573.046535 34.7249023 502.646704 34.7249023"></polygon>
                    <polygon id="Fill-43" fill="#C3E4FF" points="412.206812 579.248101 423.799929 579.248101 423.799929 59.0604699 412.206812 59.0604699"></polygon>
                    <polygon id="Fill-44" fill="#C3E4FF" points="476.993774 579.248101 488.587591 579.248101 488.587591 59.0604699 476.993774 59.0604699"></polygon>
                    <polygon id="Fill-45" fill="#C3E4FF" points="455.39812 579.248101 466.991237 579.248101 466.991237 59.0604699 455.39812 59.0604699"></polygon>
                    <polygon id="Fill-46" fill="#C3E4FF" points="433.802466 579.248101 445.395583 579.248101 445.395583 59.0604699 433.802466 59.0604699"></polygon>
                    <polygon id="Fill-47" fill="#E8F6FF" points="433.802466 308.108443 445.395583 308.108443 445.395583 287.416562 433.802466 287.416562"></polygon>
                    <polygon id="Fill-48" fill="#E8F6FF" points="455.39812 498.723058 466.991237 498.723058 466.991237 478.031177 455.39812 478.031177"></polygon>
                    <polygon id="Fill-49" fill="#E8F6FF" points="455.39812 478.031177 466.991237 478.031177 466.991237 457.339295 455.39812 457.339295"></polygon>
                    <polygon id="Fill-50" fill="#AAD5FF" points="476.993774 415.90164 488.587591 415.90164 488.587591 395.209758 476.993774 395.209758"></polygon>
                    <polygon id="Fill-52" fill="#AAD5FF" points="412.206812 436.897978 423.799929 436.897978 423.799929 416.206097 412.206812 416.206097"></polygon>
                    <polygon id="Fill-53" fill="#AAD5FF" points="476.993774 244.910157 488.587591 244.910157 488.587591 224.218275 476.993774 224.218275"></polygon>
                    <polygon id="Fill-54" fill="#AAD5FF" points="412.206812 212.391344 423.799929 212.391344 423.799929 191.699462 412.206812 191.699462"></polygon>
                    <polygon id="Fill-55" fill="#AAD5FF" points="455.39812 436.647414 466.991237 436.647414 466.991237 415.955532 455.39812 415.955532"></polygon>
                    <polygon id="Fill-57" fill="#E8F6FF" points="412.206812 522.501504 423.799929 522.501504 423.799929 501.809623 412.206812 501.809623"></polygon>
                    <polygon id="Fill-58" fill="#E8F6FF" points="455.39812 287.416562 466.991237 287.416562 466.991237 266.72468 455.39812 266.72468"></polygon>
                    <polygon id="Fill-59" fill="#E8F6FF" points="412.206812 349.492206 423.799929 349.492206 423.799929 328.800325 412.206812 328.800325"></polygon>
                    <polygon id="Fill-60" fill="#E8F6FF" points="476.993774 167.177021 488.587591 167.177021 488.587591 146.485139 476.993774 146.485139"></polygon>
                    <polygon id="Fill-61" fill="#E8F6FF" points="412.206812 135.017257 423.799929 135.017257 423.799929 114.325375 412.206812 114.325375"></polygon>
                    <polygon id="Fill-62" fill="#E8F6FF" points="412.206812 155.709138 423.799929 155.709138 423.799929 135.017257 412.206812 135.017257"></polygon>
                    <polygon id="Fill-63" fill="#E8F6FF" points="455.39812 266.72398 466.991237 266.72398 466.991237 246.032099 455.39812 246.032099"></polygon>
                    <polygon id="Fill-64" fill="#AAD5FF" points="1130.26214 576.575178 1212.31457 576.575178 1212.31457 474.74724 1130.26214 474.74724"></polygon>
                    <polygon id="Fill-65" fill="#D6EEFF" points="1163.72592 581.94902 1175.15459 581.94902 1175.15459 486.322907 1163.72592 486.322907"></polygon>
                    <polygon id="Fill-66" fill="#D6EEFF" points="1185.25789 581.94902 1196.68656 581.94902 1196.68656 486.322907 1185.25789 486.322907"></polygon>
                    <line x1="1119.72945" y1="319.154145" x2="1119.72945" y2="370.710974" id="Stroke-67" stroke="#C3E4FF" stroke-width="5.6"></line>
                    <polygon id="Fill-68" fill="#C3E4FF" points="1019.47988 585.869867 1103.63232 585.869867 1103.63232 349.628687 1019.47988 349.628687"></polygon>
                    <polygon id="Fill-69" fill="#AAD5FF" points="1030.4411 579.248101 1043.61011 579.248101 1043.61011 364.575779 1030.4411 364.575779"></polygon>
                    <polygon id="Fill-70" fill="#AAD5FF" points="1054.9723 579.248101 1068.1413 579.248101 1068.1413 364.575779 1054.9723 364.575779"></polygon>
                    <polygon id="Fill-71" fill="#AAD5FF" points="1079.5028 579.248101 1092.6718 579.248101 1092.6718 364.575779 1079.5028 364.575779"></polygon>
                    <polygon id="Fill-72" fill="#AAD5FF" points="1103.63302 585.869867 1156.97942 585.869867 1156.97942 349.628687 1103.63302 349.628687"></polygon>
                    <polygon id="Fill-73" fill="#D6EEFF" points="1114.00574 579.248101 1125.43371 579.248101 1125.43371 364.575779 1114.00574 364.575779"></polygon>
                    <polygon id="Fill-74" fill="#D6EEFF" points="1135.8792 579.248101 1147.30787 579.248101 1147.30787 364.575779 1135.8792 364.575779"></polygon>
                    <polygon id="Fill-75" fill="#C3E4FF" points="1135.8792 481.154836 1147.30787 481.154836 1147.30787 461.269941 1135.8792 461.269941"></polygon>
                    <polygon id="Fill-76" fill="#C3E4FF" points="1135.8792 422.941947 1147.30787 422.941947 1147.30787 403.057051 1135.8792 403.057051"></polygon>
                    <polygon id="Fill-77" fill="#C3E4FF" points="1114.00574 422.941947 1125.43371 422.941947 1125.43371 403.057051 1114.00574 403.057051"></polygon>
                    <polygon id="Fill-78" fill="#C3E4FF" points="1114.01484 442.826842 1125.44351 442.826842 1125.44351 422.941947 1114.01484 422.941947"></polygon>
                    <polygon id="Fill-79" fill="#C3E4FF" points="1163.72592 537.345011 1175.15459 537.345011 1175.15459 517.460115 1163.72592 517.460115"></polygon>
                    <polygon id="Fill-80" fill="#C3E4FF" points="1185.25789 557.229206 1196.68656 557.229206 1196.68656 537.345011 1185.25789 537.345011"></polygon>
                    <polygon id="Fill-81" fill="#C3E4FF" points="1114.01484 501.039032 1125.44351 501.039032 1125.44351 481.154836 1114.01484 481.154836"></polygon>
                    <polygon id="Fill-82" fill="#C3E4FF" points="1135.8792 501.039032 1147.30787 501.039032 1147.30787 481.154836 1135.8792 481.154836"></polygon>
                    <line x1="305.410805" y1="271.184241" x2="305.410805" y2="312.038879" id="Stroke-83" stroke="#C3E4FF" stroke-width="5.6"></line>
                    <polygon id="Fill-84" fill="#C3E4FF" points="179.236721 328.800325 214.547901 328.800325 214.547901 298.650677 179.236721 298.650677"></polygon>
                    <polygon id="Fill-85" fill="#D6EEFF" points="145.216621 579.248101 271.565998 579.248101 271.565998 312.038389 145.216621 312.038389"></polygon>
                    <polygon id="Fill-86" fill="#AAD5FF" points="158.135806 579.248101 172.777129 579.248101 172.777129 325.237827 158.135806 325.237827"></polygon>
                    <polygon id="Fill-87" fill="#AAD5FF" points="185.408708 579.248101 200.050031 579.248101 200.050031 325.237827 185.408708 325.237827"></polygon>
                    <polygon id="Fill-88" fill="#AAD5FF" points="212.682309 579.248101 227.323632 579.248101 227.323632 325.237827 212.682309 325.237827"></polygon>
                    <polygon id="Fill-89" fill="#AAD5FF" points="239.955211 579.248101 254.596534 579.248101 254.596534 325.237827 239.955211 325.237827"></polygon>
                    <polygon id="Fill-90" fill="#C3E4FF" points="284.916942 328.800325 320.228821 328.800325 320.228821 298.650677 284.916942 298.650677"></polygon>
                    <polygon id="Fill-91" fill="#C3E4FF" points="271.565998 579.248101 351.662565 579.248101 351.662565 312.038389 271.565998 312.038389"></polygon>
                    <polygon id="Fill-92" fill="#D6EEFF" points="298.535898 579.248101 313.177221 579.248101 313.177221 400.181157 298.535898 400.181157"></polygon>
                    <polygon id="Fill-93" fill="#D6EEFF" points="325.8095 579.248101 340.450823 579.248101 340.450823 400.181157 325.8095 400.181157"></polygon>
                    <polygon id="Fill-94" fill="#D6EEFF" points="48.3255331 581.135734 157.700548 581.135734 157.700548 430.761244 48.3255331 430.761244"></polygon>
                    <polygon id="Fill-95" fill="#C3E4FF" points="157.700548 581.135734 227.036726 581.135734 227.036726 430.761244 157.700548 430.761244"></polygon>
                    <g id="Group-108" transform="translate(48.284247, 436.304462)" fill="#AAD5FF">
                        <polygon id="Fill-96" points="0.0412865297 125.392914 157.220505 125.392914 157.220505 112.423043 0.0412865297 112.423043"></polygon>
                        <polygon id="Fill-98" points="0.0412865297 103.026869 157.220505 103.026869 157.220505 90.056998 0.0412865297 90.056998"></polygon>
                        <polygon id="Fill-100" points="0.0412865297 80.6615232 157.220505 80.6615232 157.220505 67.6916525 0.0412865297 67.6916525"></polygon>
                        <polygon id="Fill-102" points="0.0412865297 58.2954778 157.220505 58.2954778 157.220505 45.3256071 0.0412865297 45.3256071"></polygon>
                        <polygon id="Fill-104" points="0.0412865297 35.9294324 157.220505 35.9294324 157.220505 22.9602616 0.0412865297 22.9602616"></polygon>
                        <polygon id="Fill-106" points="0.0412865297 13.5640869 157.220505 13.5640869 157.220505 0.59421619 0.0412865297 0.59421619"></polygon>
                    </g>
                    <polygon id="Fill-109" fill="#E8F6FF" points="115.691854 561.697376 138.838202 561.697376 138.838202 548.727505 115.691854 548.727505"></polygon>
                    <polygon id="Fill-110" fill="#E8F6FF" points="115.691854 539.331331 138.838202 539.331331 138.838202 526.36146 115.691854 526.36146"></polygon>
                    <polygon id="Fill-111" fill="#E8F6FF" points="92.5455057 561.697376 115.691854 561.697376 115.691854 548.727505 92.5455057 548.727505"></polygon>
                    <polygon id="Fill-112" fill="#E8F6FF" points="115.341968 494.59994 138.488316 494.59994 138.488316 481.630069 115.341968 481.630069"></polygon>
                    <polygon id="Fill-113" fill="#E8F6FF" points="58.9298733 472.233894 82.0762215 472.233894 82.0762215 459.264724 58.9298733 459.264724"></polygon>
                    <polygon id="Fill-114" fill="#E8F6FF" points="82.0755217 472.233894 105.22187 472.233894 105.22187 459.264724 82.0755217 459.264724"></polygon>
                    <polygon id="Fill-115" fill="#D6EEFF" points="943.31533 579.248101 1056.38654 579.248101 1056.38654 419.616716 943.31533 419.616716"></polygon>
                    <polygon id="Fill-116" fill="#E8F6FF" points="816.997443 579.248101 943.31533 579.248101 943.31533 419.616716 816.997443 419.616716"></polygon>
                    <polygon id="Fill-117" fill="#C3E4FF" points="953.147822 436.897978 1078.35447 436.897978 1078.35447 404.918789 953.147822 404.918789"></polygon>
                    <polygon id="Fill-118" fill="#AAD5FF" points="816.997443 444.82436 1056.38654 444.82436 1056.38654 436.897978 816.997443 436.897978"></polygon>
                    <polygon id="Fill-119" fill="#C3E4FF" points="816.997443 459.135942 1056.38654 459.135942 1056.38654 451.21026 816.997443 451.21026"></polygon>
                    <polygon id="Fill-120" fill="#AAD5FF" points="816.997443 534.30534 1056.38654 534.30534 1056.38654 526.378958 816.997443 526.378958"></polygon>
                    <polygon id="Fill-121" fill="#C3E4FF" points="816.997443 548.616221 1056.38654 548.616221 1056.38654 540.689839 816.997443 540.689839"></polygon>
                    <polygon id="Fill-122" fill="#D6EEFF" points="793.750328 436.897978 953.148522 436.897978 953.148522 404.918789 793.750328 404.918789"></polygon>
                    <polygon id="Fill-123" fill="#C3E4FF" points="953.147822 526.378958 1078.35447 526.378958 1078.35447 472.387173 953.147822 472.387173"></polygon>
                    <polygon id="Fill-124" fill="#D6EEFF" points="793.750328 526.378958 953.148522 526.378958 953.148522 472.387173 793.750328 472.387173"></polygon>
                    <path d="M-6.99771692e-05,581.135664 L1225.56957,581.135664 L-6.99771692e-05,581.135664 Z" id="Fill-125" fill="#E8F6FF"></path>
                    <line x1="1225.56922" y1="581.135944" x2="0.000279908676" y2="581.135944" id="Stroke-126" stroke="#D6EEFF" stroke-width="14" stroke-linecap="round"></line>
                </g>
                <g id="Man" transform="translate(279.908676, 50.658855)">
                    <path d="M726.726965,655.376643 C726.726965,656.774346 564.101424,657.906786 363.491576,657.906786 C162.882427,657.906786 0.256186416,656.774346 0.256186416,655.376643 C0.256186416,653.97964 162.882427,652.8465 363.491576,652.8465 C564.101424,652.8465 726.726965,653.97964 726.726965,655.376643" id="Fill-128" fill="#AFB4C8"></path>
                    <path d="M709.102865,655.376643 L28.3439724,655.376643 C28.3369747,655.005696 28.3299769,654.628449 28.3299769,654.250502 C28.3299769,634.211628 28.3299769,609.45752 52.6316482,594.383046 C89.874897,571.280005 129.191569,608.595941 128.565974,562.509542 C127.915886,514.620196 106.460186,264.46008 106.460186,264.46008 L112.826009,245.475957 C112.826009,245.475957 162.611966,444.949923 175.393295,512.978928 C189.068934,585.768661 204.016757,511.092694 252.335992,508.886605 C297.946411,506.805098 319.190779,532.647553 327.899438,564.448268 C354.287829,556.695462 378.61819,552.603839 397.025685,570.359634 C422.1111,506.949278 463.451512,561.648663 458.655277,502.245241 C453.013718,432.383895 430.994702,217.081662 430.994702,217.081662 L440.355548,205.172142 C440.355548,205.172142 487.566345,403.578758 506.967515,491.536752 C520.708931,553.840564 556.036905,487.135773 616.785485,518.524945 C664.396551,543.125076 652.496934,600.412696 652.496934,600.412696 C652.496934,600.412696 704.603333,595.243925 709.102865,655.376643" id="Fill-130" fill="#B5BABD"></path>
                    <path d="M284.862919,622.483313 C284.862919,634.651796 281.202414,645.961501 274.919863,655.376573 L176.169482,655.376573 C170.47474,646.840577 166.930397,636.744501 166.323695,625.867335 C166.260715,624.745394 166.226426,623.619252 166.226426,622.483313 C166.226426,589.720234 192.783462,563.153381 225.544673,563.153381 C232.161714,563.153381 238.521939,564.236128 244.4644,566.237146 C267.948038,574.132732 284.862919,596.334301 284.862919,622.483313" id="Fill-132" fill="#D7DBDE"></path>
                    <path d="M475.734465,654.302855 C475.734465,654.658405 475.727467,655.020953 475.720469,655.376503 L385.216897,655.376503 C385.2099,655.020953 385.202902,654.658405 385.202902,654.302855 C385.202902,633.221828 399.616799,615.501027 419.126434,610.458239 C422.751951,609.52737 426.548912,609.02834 430.467634,609.02834 C432.725797,609.02834 434.948972,609.192817 437.117564,609.514072 C458.967235,612.730118 475.734465,631.559562 475.734465,654.302855" id="Fill-134" fill="#D7DBDE"></path>
                    <path d="M346.34374,653.983 C346.34374,654.444935 346.334643,654.915268 346.326246,655.376503 L228.908055,655.376503 C228.898958,654.915268 228.890561,654.444935 228.890561,653.983 C228.890561,626.634357 247.58986,603.6433 272.902002,597.101323 C277.605867,595.893993 282.53156,595.245884 287.616801,595.245884 C290.546045,595.245884 293.429804,595.458654 296.242887,595.876495 C324.590638,600.047907 346.34374,624.477261 346.34374,653.983" id="Fill-136" fill="#D7DBDE"></path>
                    <path d="M179.898146,654.62208 C179.898146,654.871944 179.893247,655.126708 179.888349,655.376573 L116.297996,655.376573 C116.293098,655.126708 116.288199,654.871944 116.288199,654.62208 C116.288199,639.810069 126.415295,627.358825 140.123823,623.815225 C142.670992,623.162217 145.339221,622.810866 148.092823,622.810866 C149.679205,622.810866 151.241095,622.92635 152.765198,623.152418 C168.117489,625.4124 179.898146,638.641934 179.898146,654.62208" id="Fill-138" fill="#D7DBDE"></path>
                    <path d="M90.5594137,655.011015 C90.5594137,655.132798 90.5573144,655.25598 90.5545153,655.376363 L59.7561637,655.376363 C59.7540644,655.25598 59.7519651,655.132798 59.7519651,655.011015 C59.7519651,647.837727 64.6566648,641.807377 71.2960986,640.091219 C72.5297961,639.774164 73.8215747,639.604088 75.1553395,639.604088 C75.9236888,639.604088 76.680142,639.66008 77.4184011,639.769964 C84.8534753,640.86391 90.5594137,647.271506 90.5594137,655.011015" id="Fill-140" fill="#BEC2C7"></path>
                    <path d="M667.585341,654.62208 C667.585341,654.871944 667.580442,655.126708 667.575544,655.376573 L603.984491,655.376573 C603.979593,655.126708 603.975394,654.871944 603.975394,654.62208 C603.975394,639.810069 614.10249,627.358825 627.811018,623.815225 C630.358187,623.162217 633.025716,622.810866 635.780018,622.810866 C637.3657,622.810866 638.928291,622.92635 640.452393,623.152418 C655.803985,625.4124 667.585341,638.641934 667.585341,654.62208" id="Fill-142" fill="#D7DBDE"></path>
                    <path d="M591.148929,624.533813 C591.148929,635.61955 588.536682,646.100572 583.894396,655.376363 L460.298621,655.376363 C455.646539,646.100572 453.034291,635.61955 453.034291,624.533813 C453.034291,586.387794 483.956502,555.459156 522.096159,555.459156 C530.374458,555.459156 538.318966,556.914251 545.669368,559.594173 C572.199112,569.224814 591.148929,594.667626 591.148929,624.533813" id="Fill-144" fill="#D7DBDE"></path>
                    <path d="M115.072906,568.035262 C115.072906,573.268424 110.83089,577.510526 105.598697,577.510526 C100.366504,577.510526 96.1251878,573.268424 96.1251878,568.035262 C96.1251878,562.8014 100.366504,558.559999 105.598697,558.559999 C110.83089,558.559999 115.072906,562.8014 115.072906,568.035262" id="Fill-146" fill="#D7DBDE"></path>
                    <path d="M13.4444336,623.740265 C13.4444336,626.75334 11.0022304,629.195996 7.98971324,629.195996 C4.97719612,629.195996 2.53499292,626.75334 2.53499292,623.740265 C2.53499292,620.72649 4.97719612,618.284535 7.98971324,618.284535 C11.0022304,618.284535 13.4444336,620.72649 13.4444336,623.740265" id="Fill-148" fill="#D7DBDE"></path>
                    <path d="M438.044552,512.545549 C438.044552,520.038692 431.971233,526.113135 424.479478,526.113135 C416.987722,526.113135 410.915103,520.038692 410.915103,512.545549 C410.915103,505.052406 416.987722,498.977962 424.479478,498.977962 C431.971233,498.977962 438.044552,505.052406 438.044552,512.545549" id="Fill-150" fill="#D7DBDE"></path>
                    <path d="M535.797268,500.27061 C535.797268,503.362774 533.290686,505.86982 530.199095,505.86982 C527.106804,505.86982 524.600921,503.362774 524.600921,500.27061 C524.600921,497.177746 527.106804,494.6714 530.199095,494.6714 C533.290686,494.6714 535.797268,497.177746 535.797268,500.27061" id="Fill-152" fill="#D7DBDE"></path>
                    <path d="M730.010574,601.917623 C730.010574,609.053817 724.226261,614.839201 717.091389,614.839201 C709.957216,614.839201 704.172904,609.053817 704.172904,601.917623 C704.172904,594.78143 709.957216,588.996046 717.091389,588.996046 C724.226261,588.996046 730.010574,594.78143 730.010574,601.917623" id="Fill-154" fill="#D7DBDE"></path>
                    <path d="M132.37728,269.045833 L91.6092812,274.507862 C91.6092812,274.507862 78.8090574,178.928643 74.3032275,145.280889 C70.4859729,116.780209 88.5218885,96.5173668 88.5218885,96.5173668 C88.5218885,96.5173668 111.253272,111.318179 115.070527,139.819559 C119.378321,171.987722 132.37728,269.045833 132.37728,269.045833" id="Fill-156" fill="#49A2FF"></path>
                    <polygon id="Fill-158" fill="#285FD7" points="128.737278 241.868596 87.9699785 247.330626 75.8289397 156.676612 116.596239 151.214582"></polygon>
                    <polygon id="Fill-160" fill="#285FD7" points="130.04732 282.009754 97.2686147 286.400935 95.6038579 273.972788 128.382563 269.580907"></polygon>
                    <polygon id="Fill-162" fill="#285FD7" points="72.6851454 282.753679 91.6090712 274.507442 88.4237105 250.719898 71.7537493 275.796661"></polygon>
                    <polygon id="Fill-164" fill="#285FD7" points="152.803896 272.020063 132.37756 269.045483 129.191499 245.258638 151.872499 265.063045"></polygon>
                    <polygon id="Fill-166" fill="#49A2FF" points="425.644807 194.938325 111.853186 236.978596 102.190039 164.822273 246.874834 52.6259974 415.98096 122.782002"></polygon>
                    <path d="M345.635781,112.854743 L357.844698,204.019684 L179.649937,227.894017 L167.44102,136.729075 C165.750372,124.108455 170.901391,111.541728 180.962708,103.739228 L246.876303,52.6275372 L323.90997,84.5878294 C335.669633,89.4661414 343.945133,100.234123 345.635781,112.854743" id="Fill-168" fill="#285FD7"></path>
                    <path d="M458.197836,221.577618 L417.429838,227.039647 C417.429838,227.039647 404.629614,131.460428 400.123784,97.813374 C396.306529,69.311994 414.342445,49.0491519 414.342445,49.0491519 C414.342445,49.0491519 437.073828,63.8499644 440.891783,92.3513444 C445.199577,124.519507 458.197836,221.577618 458.197836,221.577618" id="Fill-170" fill="#49A2FF"></path>
                    <polygon id="Fill-172" fill="#285FD7" points="454.558184 194.400381 413.790185 199.862411 401.649846 109.208397 442.417145 103.747067"></polygon>
                    <polygon id="Fill-174" fill="#285FD7" points="455.868226 234.541539 423.088821 238.93272 421.424064 226.504573 454.20347 222.112692"></polygon>
                    <polygon id="Fill-176" fill="#285FD7" points="398.506122 235.285814 417.430047 227.039577 414.244687 203.252033 397.574026 228.328796"></polygon>
                    <polygon id="Fill-178" fill="#285FD7" points="478.624452 224.551848 458.198116 221.577268 455.012056 197.790423 477.693056 217.59483"></polygon>
                    <path d="M211.731949,399.858013 L223.446827,412.560521 C223.446827,412.560521 196.350968,437.460209 194.030525,456.407237 L252.335502,418.301111 L223.711341,378.804982 L211.731949,399.858013 Z" id="Fill-180" fill="#0B096F"></path>
                    <polygon id="Fill-182" fill="#EF3C86" points="226.153824 382.543645 239.357116 400.898556 223.447107 412.561011 211.732229 399.857803"></polygon>
                    <path d="M333.856455,457.794651 L346.300495,469.78396 C346.300495,469.78396 334.717174,509.537653 333.519864,528.588966 L374.078632,471.007387 L344.572058,436.071115 L333.856455,457.794651 Z" id="Fill-184" fill="#0B096F"></path>
                    <polygon id="Fill-186" fill="#EF3C86" points="347.230701 439.658739 360.095304 454.402159 346.300704 469.78389 333.856664 457.794581"></polygon>
                    <path d="M147.367019,249.898003 C147.367019,249.898003 213.686482,248.593387 217.579312,239.122323 C225.232715,220.49865 216.124486,158.592382 216.124486,158.592382 L177.128309,165.34153 L183.831422,221.534504 L138.742333,231.317724" id="Fill-188" fill="#FF77CA"></path>
                    <path d="M216.902353,223.864615 L207.279092,182.790908 L175.405891,188.80446 C175.405891,188.80446 174.748106,138.503255 182.91934,126.019116 C189.952045,115.275631 201.843966,101.296503 231.7746,95.1772658 C276.27798,86.0778493 287.076157,90.7454909 301.977795,102.127286 C314.852895,111.960899 332.562017,142.588579 332.562017,142.588579 L299.2067,160.816108 L310.426839,199.358972 L216.902353,223.864615 Z" id="Fill-190" fill="#FFC100"></path>
                    <polyline id="Stroke-192" stroke="#0B096F" stroke-width="6.3" points="236.057273 3.87381362 238.063518 17.4665964 243.6365 18.1490002 249.466998 6.12749576"></polyline>
                    <path d="M171.275769,38.6460292 C171.275769,38.6460292 159.120035,67.0102286 185.437748,67.0067291 L171.275769,38.6460292 Z" id="Fill-194" fill="#0B096F"></path>
                    <path d="M223.487974,107.865846 L219.14869,91.1808995 C219.14869,91.1808995 195.714735,99.146476 189.558844,97.707479 C189.558844,97.707479 178.948905,73.3425155 178.284122,54.3184987 L194.75045,29.5482924 L229.917476,23.2890752 L241.7989,53.5402085 C242.247453,47.7499252 256.988144,36.8769587 263.982362,47.8269143 C273.001719,61.9460229 247.127661,76.827324 247.127661,76.827324 L253.780391,98.6194503" id="Fill-196" fill="#FF77CA"></path>
                    <path d="M223.487344,96.998269 L215.827643,99.7768771 C215.827643,99.7768771 211.647207,122.912814 234.814548,118.112891 C253.53554,114.234038 256.689411,91.142195 256.689411,91.142195 L246.345386,92.3131298" id="Fill-198" fill="#FF77CA"></path>
                    <path d="M253.590123,43.3803015 C253.590123,43.3803015 268.610022,32.2882659 243.936072,17.0605137 C219.262123,1.8320616 204.533328,16.753957 204.533328,16.753957 C204.533328,16.753957 194.380341,-2.5829157 180.811768,0.939687463 C161.481974,5.95727976 166.116562,36.6241544 166.116562,36.6241544 C166.116562,36.6241544 152.218397,22.8465976 147.265413,26.5854703 C142.311729,30.3243429 155.925087,84.3826184 226.211555,38.4271001 C226.211555,38.4271001 223.387976,55.0126608 241.79897,53.5407684 C241.79897,53.5407684 243.255195,46.3982758 253.590123,43.3803015" id="Fill-200" fill="#0B096F"></path>
                    <path d="M269.071941,90.3727935 C269.071941,90.3727935 271.268525,89.0282831 283.870013,92.276525 C283.870013,92.276525 274.208266,127.277188 302.630193,192.169936 L297.910233,196.620608 C297.910233,196.620608 262.491288,152.114585 269.071941,90.3727935" id="Fill-202" fill="#1E202D"></path>
                    <path d="M193.43131,113.289451 C193.43131,113.289451 201.500378,104.994221 206.768959,103.822586 C206.768959,103.822586 194.021218,132.15809 211.885689,202.454075 L215.86669,219.442079 C215.86669,219.442079 185.372739,173.793118 193.43131,113.289451" id="Fill-204" fill="#1E202D"></path>
                    <path d="M203.938802,86.824434 C204.748438,89.4014705 210.959611,90.2490509 214.569034,87.5425327 C222.563226,81.5485781 220.107727,73.6123974 215.189032,73.7418792 C209.052734,73.9035564 210.506159,79.521664 207.65319,81.4183964 C204.388055,83.5880904 203.346795,84.9402997 203.938802,86.824434" id="Fill-206" fill="#FFFFFF"></path>
                    <polygon id="Fill-208" fill="#EF3C86" points="219.188577 91.2770659 237.486907 82.5331992 221.271097 99.1047619"></polygon>
                    <polygon id="Fill-210" fill="#285FD7" points="196.862851 67.5996855 194.631979 83.5903301 201.751456 81.8713726"></polygon>
                    <path d="M202.59636,67.4414378 C202.96304,70.0569689 204.823034,71.9586007 206.750905,71.6877389 C208.679475,71.417577 209.944663,69.077807 209.578682,66.4622759 C209.212002,63.8467448 207.351309,61.945113 205.423438,62.2159748 C203.495567,62.4861367 202.22968,64.8259067 202.59636,67.4414378" id="Fill-212" fill="#0B096F"></path>
                    <path d="M185.577633,71.2078866 C185.944313,73.8234177 187.804306,75.7250495 189.732177,75.4541877 C191.660748,75.1840258 192.926635,72.8442558 192.559955,70.2287247 C192.193274,67.6131936 190.332581,65.7115618 188.40541,65.9824236 C186.476839,66.2525855 185.210952,68.5923555 185.577633,71.2078866" id="Fill-214" fill="#0B096F"></path>
                    <path d="M216.902353,223.864615 C216.902353,223.864615 131.829009,269.166426 123.021682,294.499353 C113.547474,321.750009 208.969041,411.436759 208.969041,411.436759 L238.444824,390.117066 L184.490327,305.482204 L285.278444,249.898143 L263.62051,211.623342 L216.902353,223.864615 Z" id="Fill-216" fill="#2B2B3B"></path>
                    <path d="M256.645466,213.450854 C256.645466,213.450854 250.433592,338.036782 256.645466,363.592278 C259.975679,377.293545 335.841427,472.705488 335.841427,472.705488 L360.243865,443.129759 L308.173854,344.641051 L314.597758,197.338427 L256.645466,213.450854 Z" id="Fill-218" fill="#2B2B3B"></path>
                    <path d="M275.002856,209.901795 C275.002856,209.901795 336.880868,219.887986 345.30402,211.927309 C358.791419,199.180007 327.899998,145.136429 327.899998,145.136429 L297.803517,161.632403 L309.641555,186.449502 L273.098778,186.756059" id="Fill-220" fill="#FF77CA"></path>
                    <line x1="119.50463" y1="215.105561" x2="151.22738" y2="257.315207" id="Stroke-222" stroke="#1C2127" stroke-width="14"></line>
                    <line x1="265.469867" y1="219.632732" x2="254.27352" y2="166.82798" id="Stroke-224" stroke="#1C2127" stroke-width="12.6"></line>
                    <path d="M139.471006,237.974695 C145.855023,244.491476 148.148175,253.014874 144.592635,257.01201 C141.037095,261.009846 132.979923,258.966834 126.595906,252.450054 C120.211889,245.933273 117.918737,237.409875 121.474277,233.412739 C125.029817,229.415602 133.086988,231.457914 139.471006,237.974695" id="Fill-226" fill="#FF77CA"></path>
                    <path d="M138.281254,232.590495 C137.957259,237.908345 132.276513,238.244297 132.276513,238.244297 L131.429789,224.89438 L149.054939,229.07979 L148.066161,238.244297 L138.281254,232.590495 Z" id="Fill-228" fill="#FF77CA"></path>
                    <path d="M278.318235,189.389648 C278.318235,189.389648 261.255702,177.832878 257.09206,178.153433 C252.081695,178.539078 244.77118,182.21636 242.140738,184.170484 C239.510996,186.124608 241.602614,191.226889 243.234481,192.342531 C243.234481,192.342531 240.153387,196.713415 244.0959,201.155688 C244.0959,201.155688 243.82019,205.573465 247.961439,207.902737 C247.961439,207.902737 248.90823,212.452795 253.768844,212.611672 C258.629458,212.77055 269.979055,210.701642 278.851461,209.026078" id="Fill-230" fill="#FF77CA"></path>
                    <line x1="119.50463" y1="215.105561" x2="201.418504" y2="107.011407" id="Stroke-232" stroke="#1C2127" stroke-width="3.5"></line>
                    <line x1="275.841043" y1="90.8191205" x2="254.27338" y2="166.8277" id="Stroke-234" stroke="#1C2127" stroke-width="3.5"></line>
                    <polygon id="Fill-236" fill="#151B21" points="254.630543 266.572592 255.361805 252.410089 218.213725 286.531677"></polygon>
                    <polygon id="Fill-238" fill="#EF3C86" points="297.803237 161.632543 327.900418 145.136569 302.629563 171.751016"></polygon>
                    <polygon id="Fill-240" fill="#EF3C86" points="179.827819 187.970388 181.156685 199.112116 202.380061 191.169637 200.002236 184.163625"></polygon>
                </g>
            </g>
        </g>
    </g>
</svg>